<svg xmlns="http://www.w3.org/2000/svg" version="1.1" xmlns:xlink="http://www.w3.org/1999/xlink" xmlns:svgjs="http://svgjs.com/svgjs" width="512" height="512" x="0" y="0" viewBox="0 0 512.162 512.162" style="enable-background:new 0 0 512 512" xml:space="preserve" class=""><g><path d="M278.143 396.423a46.092 46.092 0 0 0-43.059.914 20.401 20.401 0 0 0-11.204 17.118 18.868 18.868 0 0 0 10.434 15.862 40.989 40.989 0 0 0 20.29 4.908 45.102 45.102 0 0 0 22.77-5.809 20.438 20.438 0 0 0 11.204-17.118 18.905 18.905 0 0 0-10.435-15.875zm-7.704 21.441a32.89 32.89 0 0 1-29.362.803c-2.322-1.349-3.717-2.954-3.724-4.309-.013-1.283 1.211-3.395 4.665-5.467a31.94 31.94 0 0 1 15.895-3.882 27.668 27.668 0 0 1 13.467 3.066c2.322 1.355 3.717 2.967 3.724 4.322.006 1.282-1.211 3.394-4.665 5.467zM97.675 280.085a6.738 6.738 0 0 0-6.736.114c-17.02 10.211-26.336 23.875-26.23 38.474.105 13.671 8.566 26.079 23.842 34.947a6.738 6.738 0 0 0 9.192-2.458 6.739 6.739 0 0 0-2.429-9.2c-10.98-6.368-17.066-14.678-17.132-23.388-.066-9.5 7.112-19.276 19.691-26.822a6.736 6.736 0 0 0-.198-11.667z" fill="#dcf14f" data-original="#000000" class=""></path><path d="M494.334 281.061 300.847 168.739c-.158-.107-3.133-1.78-6.493-3.65v-1.258c38.297-14.369 60.831-54.077 53.529-94.324C340.581 29.261 305.534 0 264.63 0s-75.951 29.261-83.253 69.507c-7.302 40.247 15.232 79.954 53.529 94.324v1.34a61.91 61.91 0 0 0-10.895 5.054l-203.382 122a38.612 38.612 0 0 0-16.347 17.327 6.646 6.646 0 0 0-3.475 5.778v48.164a6.602 6.602 0 0 0 1.485 4.043 30.484 30.484 0 0 0 16.817 23.405l193.947 112.566a72.596 72.596 0 0 0 35.849 8.638 80.58 80.58 0 0 0 40.645-10.381l203.283-121.98a33.393 33.393 0 0 0 18.401-25.553c.021-.186-.016-.353-.002-.536.003-.082.048-.151.048-.234v-46.163c.012-.342.075-.678.072-1.021a30.01 30.01 0 0 0-17.018-25.217zM193.492 84.712c-.013-37.336 28.839-68.329 66.081-70.983 37.241-2.654 70.198 23.933 75.48 60.893s-18.907 71.715-55.401 79.599c-.714.153-1.433.272-2.15.403a69.765 69.765 0 0 1-4.099.627c-.852.104-1.702.21-2.557.284a70.837 70.837 0 0 1-4.789.242c-.952.019-1.903.019-2.854 0a72.104 72.104 0 0 1-4.788-.242c-.856-.074-1.707-.18-2.559-.284a72.792 72.792 0 0 1-4.099-.627c-.717-.13-1.436-.25-2.148-.403-32.714-7.107-56.066-36.032-56.117-69.509zm87.388 83.046v107.27c0 8.975-7.275 16.25-16.25 16.25s-16.25-7.275-16.25-16.25v-107.27c1.452.283 2.93.43 4.398.636 1.168.165 2.314.39 3.497.506 2.03.199 4.071.257 6.112.31.752.02 1.485.113 2.243.113.757 0 1.49-.094 2.243-.113 2.04-.053 4.081-.111 6.112-.31 1.182-.116 2.329-.341 3.495-.506 1.469-.205 2.948-.353 4.4-.636zm-16.25 136.994c16.416 0 29.724-13.308 29.724-29.724v-31.674a88.41 88.41 0 0 1 27.507 9.733c12.579 7.289 19.553 16.882 19.625 27 .086 11.006-8.105 22.27-22.473 30.894-31.355 18.868-81.112 20.118-110.921 2.783-12.592-7.296-19.572-16.895-19.658-27.013-.086-11.02 8.112-22.303 22.5-30.954a97.53 97.53 0 0 1 23.974-10.008v29.238c-.002 16.417 13.306 29.725 29.722 29.725zm-63.309 20.664a118.05 118.05 0 0 0 58.27 13.842 131.839 131.839 0 0 0 66.362-16.724c18.559-11.145 29.132-26.651 29.007-42.553a43.164 43.164 0 0 0-19.816-34.266 111.428 111.428 0 0 1 13.526 6.602c19.164 11.151 29.776 25.941 29.888 41.645.112 16.954-12.289 34.164-34.033 47.211-46.04 27.684-119.283 29.467-163.257 4.02-19.178-11.145-29.803-25.941-29.914-41.664-.118-16.974 12.27-34.171 33.987-47.197 2.283-1.37 4.808-2.549 7.24-3.802a45.305 45.305 0 0 0-17.622 34.329c.125 15.084 9.487 28.774 26.362 38.557zm296.487 27.719a21.16 21.16 0 0 1-11.901 15.091L282.624 490.212a69.36 69.36 0 0 1-62.809 1.638L25.867 379.285a17.56 17.56 0 0 1-10.25-13.658 1.639 1.639 0 0 1 .007-.414 6.675 6.675 0 0 0-1.342-4.727v-18.779a45.372 45.372 0 0 0 4.809 3.289l193.954 112.507a72.599 72.599 0 0 0 35.908 8.671 80.194 80.194 0 0 0 40.605-10.408l203.329-121.947a53.17 53.17 0 0 0 4.921-3.385v22.701zm0-45.942a21.339 21.339 0 0 1-11.868 15.079L282.617 444.219a69.15 69.15 0 0 1-62.809 1.625L25.88 333.357A17.388 17.388 0 0 1 15.61 319.6a20.548 20.548 0 0 1 11.947-15.822l203.382-121.993c1.295-.778 2.633-1.415 3.967-2.061v44.767a169.606 169.606 0 0 0-56.5 20.288c-26.283 15.763-40.678 36.664-40.526 58.842.145 20.684 13.151 39.586 36.632 53.224a168.28 168.28 0 0 0 82.743 19.605 187.175 187.175 0 0 0 94.211-23.724c26.309-15.789 40.711-36.691 40.559-58.855-.138-20.658-13.132-39.553-36.592-53.204a155.055 155.055 0 0 0-61.079-18.514v-41.62L487.571 292.72a17.552 17.552 0 0 1 10.237 13.288v1.185z" fill="#dcf14f" data-original="#000000" class=""></path><path d="M263.702 43.903a6.737 6.737 0 0 0-6.737-6.737c-24.868.031-45.019 20.185-45.046 45.053a6.737 6.737 0 1 0 13.474 0c.018-17.431 14.142-31.558 31.572-31.579a6.737 6.737 0 0 0 6.737-6.737z" fill="#dcf14f" data-original="#000000" class=""></path></g></svg>