<svg xmlns="http://www.w3.org/2000/svg" version="1.1" xmlns:xlink="http://www.w3.org/1999/xlink" xmlns:svgjs="http://svgjs.com/svgjs" width="512" height="512" x="0" y="0" viewBox="0 0 512 512" style="enable-background:new 0 0 512 512" xml:space="preserve" class=""><g><path d="M323.543 330.414c78.273 0 141.957-63.68 141.957-141.957 0-78.273-63.684-141.957-141.957-141.957s-141.957 63.684-141.957 141.957c0 78.277 63.684 141.957 141.957 141.957zm0-263.914c67.246 0 121.957 54.71 121.957 121.957 0 67.246-54.71 121.957-121.957 121.957-67.246 0-121.957-54.707-121.957-121.957 0-67.246 54.71-121.957 121.957-121.957zm0 0" fill="#dcf14f" data-original="#000000" class=""></path><path d="M322.059 379.883C426.793 379.883 512 294.676 512 189.94S426.793 0 322.059 0 132.117 85.207 132.117 189.941c0 39.75 12.281 76.676 33.238 107.211l-31.07 31.07-4.23-4.23c-3.907-3.906-10.239-3.906-14.145 0L14.934 424.97C5.304 434.598 0 447.402 0 461.019c0 13.618 5.305 26.419 14.934 36.047S37.364 512 50.98 512c13.618 0 26.422-5.305 36.051-14.934l100.98-100.976a9.996 9.996 0 0 0 2.926-7.07c0-2.653-1.05-5.2-2.925-7.075l-4.235-4.23 31.07-31.07c30.536 20.957 67.465 33.238 107.212 33.238zm0-359.883C415.766 20 492 96.234 492 189.941c0 93.707-76.234 169.942-169.941 169.942-93.704 0-169.942-76.235-169.942-169.942C152.117 96.234 228.355 20 322.06 20zM72.89 482.926C67.035 488.777 59.258 492 50.98 492c-8.278 0-16.055-3.223-21.907-9.074-12.082-12.078-12.082-31.735 0-43.817l93.906-93.906 4.23 4.227c0 .004.005.004.005.007l39.582 39.583zm96.746-119.356-21.207-21.207 29.203-29.203a192.075 192.075 0 0 0 21.207 21.207zm0 0" fill="#dcf14f" data-original="#000000" class=""></path><path d="M289.309 162.172c5.523 0 10-4.477 10-10a24.277 24.277 0 0 1 8.074-18.059c5.203-4.66 11.933-6.797 18.96-6.02 11.102 1.227 20.052 10.177 21.278 21.278 1.078 9.79-3.738 19.2-12.277 23.973-13.446 7.52-21.801 21.426-21.801 36.289v14.27c0 5.523 4.477 10 10 10 5.52 0 10-4.477 10-10v-14.27c0-7.63 4.43-14.844 11.562-18.832 15.57-8.707 24.36-25.832 22.395-43.625-2.246-20.332-18.633-36.715-38.96-38.961-12.563-1.387-25.145 2.62-34.5 11a44.3 44.3 0 0 0-14.731 32.957c0 5.523 4.476 10 10 10zM323.54 252.89a10.07 10.07 0 0 0-7.067 2.93 10.083 10.083 0 0 0-2.934 7.07c0 2.641 1.07 5.212 2.934 7.07a10.037 10.037 0 0 0 7.066 2.93 10.04 10.04 0 0 0 7.07-2.93c1.86-1.858 2.93-4.44 2.93-7.07s-1.066-5.21-2.93-7.07a10.073 10.073 0 0 0-7.07-2.93zm0 0" fill="#dcf14f" data-original="#000000" class=""></path></g></svg>